<?xml version="1.0" encoding="utf-8" standalone="no"?>
<!DOCTYPE svg PUBLIC "-//W3C//DTD SVG 1.1//EN"
  "http://www.w3.org/Graphics/SVG/1.1/DTD/svg11.dtd">
<svg xmlns:xlink="http://www.w3.org/1999/xlink" width="864pt" height="432pt" viewBox="0 0 864 432" xmlns="http://www.w3.org/2000/svg" version="1.1">
 <metadata>
  <rdf:RDF xmlns:dc="http://purl.org/dc/elements/1.1/" xmlns:cc="http://creativecommons.org/ns#" xmlns:rdf="http://www.w3.org/1999/02/22-rdf-syntax-ns#">
   <cc:Work>
    <dc:type rdf:resource="http://purl.org/dc/dcmitype/StillImage"/>
    <dc:date>2024-04-09T14:50:48.009614</dc:date>
    <dc:format>image/svg+xml</dc:format>
    <dc:creator>
     <cc:Agent>
      <dc:title>Matplotlib v3.5.1, https://matplotlib.org/</dc:title>
     </cc:Agent>
    </dc:creator>
   </cc:Work>
  </rdf:RDF>
 </metadata>
 <defs>
  <style type="text/css">*{stroke-linejoin: round; stroke-linecap: butt}</style>
 </defs>
 <g id="figure_1">
  <g id="patch_1">
   <path d="M 0 432 
L 864 432 
L 864 0 
L 0 0 
z
" style="fill: #ffffff"/>
  </g>
  <g id="axes_1">
   <g id="patch_2">
    <path d="M 89.598242 369.5 
L 847.8 369.5 
L 847.8 16.2 
L 89.598242 16.2 
z
" style="fill: #ffffff"/>
   </g>
   <g id="matplotlib.axis_1">
    <g id="xtick_1">
     <g id="line2d_1">
      <defs>
       <path id="m6872fe54de" d="M 0 0 
L 0 10 
" style="stroke: #000000; stroke-width: 2"/>
      </defs>
      <g>
       <use xlink:href="#m6872fe54de" x="124.061958" y="369.5" style="stroke: #000000; stroke-width: 2"/>
      </g>
     </g>
     <g id="text_1">
      <!-- 0.0 -->
      <g transform="translate(112.134614 394.397656)scale(0.15 -0.15)">
       <defs>
        <path id="DejaVuSans-30" d="M 2034 4250 
Q 1547 4250 1301 3770 
Q 1056 3291 1056 2328 
Q 1056 1369 1301 889 
Q 1547 409 2034 409 
Q 2525 409 2770 889 
Q 3016 1369 3016 2328 
Q 3016 3291 2770 3770 
Q 2525 4250 2034 4250 
z
M 2034 4750 
Q 2819 4750 3233 4129 
Q 3647 3509 3647 2328 
Q 3647 1150 3233 529 
Q 2819 -91 2034 -91 
Q 1250 -91 836 529 
Q 422 1150 422 2328 
Q 422 3509 836 4129 
Q 1250 4750 2034 4750 
z
" transform="scale(0.015625)"/>
        <path id="DejaVuSans-2e" d="M 684 794 
L 1344 794 
L 1344 0 
L 684 0 
L 684 794 
z
" transform="scale(0.015625)"/>
       </defs>
       <use xlink:href="#DejaVuSans-30"/>
       <use xlink:href="#DejaVuSans-2e" x="63.623047"/>
       <use xlink:href="#DejaVuSans-30" x="95.410156"/>
      </g>
     </g>
    </g>
    <g id="xtick_2">
     <g id="line2d_2">
      <g>
       <use xlink:href="#m6872fe54de" x="275.781234" y="369.5" style="stroke: #000000; stroke-width: 2"/>
      </g>
     </g>
     <g id="text_2">
      <!-- 0.1 -->
      <g transform="translate(263.85389 394.397656)scale(0.15 -0.15)">
       <defs>
        <path id="DejaVuSans-31" d="M 794 531 
L 1825 531 
L 1825 4091 
L 703 3866 
L 703 4441 
L 1819 4666 
L 2450 4666 
L 2450 531 
L 3481 531 
L 3481 0 
L 794 0 
L 794 531 
z
" transform="scale(0.015625)"/>
       </defs>
       <use xlink:href="#DejaVuSans-30"/>
       <use xlink:href="#DejaVuSans-2e" x="63.623047"/>
       <use xlink:href="#DejaVuSans-31" x="95.410156"/>
      </g>
     </g>
    </g>
    <g id="xtick_3">
     <g id="line2d_3">
      <g>
       <use xlink:href="#m6872fe54de" x="427.50051" y="369.5" style="stroke: #000000; stroke-width: 2"/>
      </g>
     </g>
     <g id="text_3">
      <!-- 0.2 -->
      <g transform="translate(415.573166 394.397656)scale(0.15 -0.15)">
       <defs>
        <path id="DejaVuSans-32" d="M 1228 531 
L 3431 531 
L 3431 0 
L 469 0 
L 469 531 
Q 828 903 1448 1529 
Q 2069 2156 2228 2338 
Q 2531 2678 2651 2914 
Q 2772 3150 2772 3378 
Q 2772 3750 2511 3984 
Q 2250 4219 1831 4219 
Q 1534 4219 1204 4116 
Q 875 4013 500 3803 
L 500 4441 
Q 881 4594 1212 4672 
Q 1544 4750 1819 4750 
Q 2544 4750 2975 4387 
Q 3406 4025 3406 3419 
Q 3406 3131 3298 2873 
Q 3191 2616 2906 2266 
Q 2828 2175 2409 1742 
Q 1991 1309 1228 531 
z
" transform="scale(0.015625)"/>
       </defs>
       <use xlink:href="#DejaVuSans-30"/>
       <use xlink:href="#DejaVuSans-2e" x="63.623047"/>
       <use xlink:href="#DejaVuSans-32" x="95.410156"/>
      </g>
     </g>
    </g>
    <g id="xtick_4">
     <g id="line2d_4">
      <g>
       <use xlink:href="#m6872fe54de" x="579.219786" y="369.5" style="stroke: #000000; stroke-width: 2"/>
      </g>
     </g>
     <g id="text_4">
      <!-- 0.3 -->
      <g transform="translate(567.292442 394.397656)scale(0.15 -0.15)">
       <defs>
        <path id="DejaVuSans-33" d="M 2597 2516 
Q 3050 2419 3304 2112 
Q 3559 1806 3559 1356 
Q 3559 666 3084 287 
Q 2609 -91 1734 -91 
Q 1441 -91 1130 -33 
Q 819 25 488 141 
L 488 750 
Q 750 597 1062 519 
Q 1375 441 1716 441 
Q 2309 441 2620 675 
Q 2931 909 2931 1356 
Q 2931 1769 2642 2001 
Q 2353 2234 1838 2234 
L 1294 2234 
L 1294 2753 
L 1863 2753 
Q 2328 2753 2575 2939 
Q 2822 3125 2822 3475 
Q 2822 3834 2567 4026 
Q 2313 4219 1838 4219 
Q 1578 4219 1281 4162 
Q 984 4106 628 3988 
L 628 4550 
Q 988 4650 1302 4700 
Q 1616 4750 1894 4750 
Q 2613 4750 3031 4423 
Q 3450 4097 3450 3541 
Q 3450 3153 3228 2886 
Q 3006 2619 2597 2516 
z
" transform="scale(0.015625)"/>
       </defs>
       <use xlink:href="#DejaVuSans-30"/>
       <use xlink:href="#DejaVuSans-2e" x="63.623047"/>
       <use xlink:href="#DejaVuSans-33" x="95.410156"/>
      </g>
     </g>
    </g>
    <g id="xtick_5">
     <g id="line2d_5">
      <g>
       <use xlink:href="#m6872fe54de" x="730.939062" y="369.5" style="stroke: #000000; stroke-width: 2"/>
      </g>
     </g>
     <g id="text_5">
      <!-- 0.4 -->
      <g transform="translate(719.011718 394.397656)scale(0.15 -0.15)">
       <defs>
        <path id="DejaVuSans-34" d="M 2419 4116 
L 825 1625 
L 2419 1625 
L 2419 4116 
z
M 2253 4666 
L 3047 4666 
L 3047 1625 
L 3713 1625 
L 3713 1100 
L 3047 1100 
L 3047 0 
L 2419 0 
L 2419 1100 
L 313 1100 
L 313 1709 
L 2253 4666 
z
" transform="scale(0.015625)"/>
       </defs>
       <use xlink:href="#DejaVuSans-30"/>
       <use xlink:href="#DejaVuSans-2e" x="63.623047"/>
       <use xlink:href="#DejaVuSans-34" x="95.410156"/>
      </g>
     </g>
    </g>
    <g id="text_6">
     <!-- Time -->
     <g transform="translate(450.34873 412.914844)scale(0.15 -0.15)">
      <defs>
       <path id="DejaVuSans-54" d="M -19 4666 
L 3928 4666 
L 3928 4134 
L 2272 4134 
L 2272 0 
L 1638 0 
L 1638 4134 
L -19 4134 
L -19 4666 
z
" transform="scale(0.015625)"/>
       <path id="DejaVuSans-69" d="M 603 3500 
L 1178 3500 
L 1178 0 
L 603 0 
L 603 3500 
z
M 603 4863 
L 1178 4863 
L 1178 4134 
L 603 4134 
L 603 4863 
z
" transform="scale(0.015625)"/>
       <path id="DejaVuSans-6d" d="M 3328 2828 
Q 3544 3216 3844 3400 
Q 4144 3584 4550 3584 
Q 5097 3584 5394 3201 
Q 5691 2819 5691 2113 
L 5691 0 
L 5113 0 
L 5113 2094 
Q 5113 2597 4934 2840 
Q 4756 3084 4391 3084 
Q 3944 3084 3684 2787 
Q 3425 2491 3425 1978 
L 3425 0 
L 2847 0 
L 2847 2094 
Q 2847 2600 2669 2842 
Q 2491 3084 2119 3084 
Q 1678 3084 1418 2786 
Q 1159 2488 1159 1978 
L 1159 0 
L 581 0 
L 581 3500 
L 1159 3500 
L 1159 2956 
Q 1356 3278 1631 3431 
Q 1906 3584 2284 3584 
Q 2666 3584 2933 3390 
Q 3200 3197 3328 2828 
z
" transform="scale(0.015625)"/>
       <path id="DejaVuSans-65" d="M 3597 1894 
L 3597 1613 
L 953 1613 
Q 991 1019 1311 708 
Q 1631 397 2203 397 
Q 2534 397 2845 478 
Q 3156 559 3463 722 
L 3463 178 
Q 3153 47 2828 -22 
Q 2503 -91 2169 -91 
Q 1331 -91 842 396 
Q 353 884 353 1716 
Q 353 2575 817 3079 
Q 1281 3584 2069 3584 
Q 2775 3584 3186 3129 
Q 3597 2675 3597 1894 
z
M 3022 2063 
Q 3016 2534 2758 2815 
Q 2500 3097 2075 3097 
Q 1594 3097 1305 2825 
Q 1016 2553 972 2059 
L 3022 2063 
z
" transform="scale(0.015625)"/>
      </defs>
      <use xlink:href="#DejaVuSans-54"/>
      <use xlink:href="#DejaVuSans-69" x="57.958984"/>
      <use xlink:href="#DejaVuSans-6d" x="85.742188"/>
      <use xlink:href="#DejaVuSans-65" x="183.154297"/>
     </g>
    </g>
   </g>
   <g id="matplotlib.axis_2">
    <g id="ytick_1">
     <g id="line2d_6">
      <defs>
       <path id="mdd4c599305" d="M 0 0 
L -10 0 
" style="stroke: #000000; stroke-width: 2"/>
      </defs>
      <g>
       <use xlink:href="#mdd4c599305" x="89.598242" y="340.36467" style="stroke: #000000; stroke-width: 2"/>
      </g>
     </g>
     <g id="text_7">
      <!-- $\mathdefault{10^{-16}}$ -->
      <g transform="translate(34.248242 346.063498)scale(0.15 -0.15)">
       <defs>
        <path id="DejaVuSans-2212" d="M 678 2272 
L 4684 2272 
L 4684 1741 
L 678 1741 
L 678 2272 
z
" transform="scale(0.015625)"/>
        <path id="DejaVuSans-36" d="M 2113 2584 
Q 1688 2584 1439 2293 
Q 1191 2003 1191 1497 
Q 1191 994 1439 701 
Q 1688 409 2113 409 
Q 2538 409 2786 701 
Q 3034 994 3034 1497 
Q 3034 2003 2786 2293 
Q 2538 2584 2113 2584 
z
M 3366 4563 
L 3366 3988 
Q 3128 4100 2886 4159 
Q 2644 4219 2406 4219 
Q 1781 4219 1451 3797 
Q 1122 3375 1075 2522 
Q 1259 2794 1537 2939 
Q 1816 3084 2150 3084 
Q 2853 3084 3261 2657 
Q 3669 2231 3669 1497 
Q 3669 778 3244 343 
Q 2819 -91 2113 -91 
Q 1303 -91 875 529 
Q 447 1150 447 2328 
Q 447 3434 972 4092 
Q 1497 4750 2381 4750 
Q 2619 4750 2861 4703 
Q 3103 4656 3366 4563 
z
" transform="scale(0.015625)"/>
       </defs>
       <use xlink:href="#DejaVuSans-31" transform="translate(0 0.765625)"/>
       <use xlink:href="#DejaVuSans-30" transform="translate(63.623047 0.765625)"/>
       <use xlink:href="#DejaVuSans-2212" transform="translate(128.203125 39.046875)scale(0.7)"/>
       <use xlink:href="#DejaVuSans-31" transform="translate(186.855469 39.046875)scale(0.7)"/>
       <use xlink:href="#DejaVuSans-36" transform="translate(231.391602 39.046875)scale(0.7)"/>
      </g>
     </g>
    </g>
    <g id="ytick_2">
     <g id="line2d_7">
      <g>
       <use xlink:href="#mdd4c599305" x="89.598242" y="297.675292" style="stroke: #000000; stroke-width: 2"/>
      </g>
     </g>
     <g id="text_8">
      <!-- $\mathdefault{10^{-14}}$ -->
      <g transform="translate(34.248242 303.37412)scale(0.15 -0.15)">
       <use xlink:href="#DejaVuSans-31" transform="translate(0 0.684375)"/>
       <use xlink:href="#DejaVuSans-30" transform="translate(63.623047 0.684375)"/>
       <use xlink:href="#DejaVuSans-2212" transform="translate(128.203125 38.965625)scale(0.7)"/>
       <use xlink:href="#DejaVuSans-31" transform="translate(186.855469 38.965625)scale(0.7)"/>
       <use xlink:href="#DejaVuSans-34" transform="translate(231.391602 38.965625)scale(0.7)"/>
      </g>
     </g>
    </g>
    <g id="ytick_3">
     <g id="line2d_8">
      <g>
       <use xlink:href="#mdd4c599305" x="89.598242" y="254.985914" style="stroke: #000000; stroke-width: 2"/>
      </g>
     </g>
     <g id="text_9">
      <!-- $\mathdefault{10^{-12}}$ -->
      <g transform="translate(34.248242 260.684742)scale(0.15 -0.15)">
       <use xlink:href="#DejaVuSans-31" transform="translate(0 0.765625)"/>
       <use xlink:href="#DejaVuSans-30" transform="translate(63.623047 0.765625)"/>
       <use xlink:href="#DejaVuSans-2212" transform="translate(128.203125 39.046875)scale(0.7)"/>
       <use xlink:href="#DejaVuSans-31" transform="translate(186.855469 39.046875)scale(0.7)"/>
       <use xlink:href="#DejaVuSans-32" transform="translate(231.391602 39.046875)scale(0.7)"/>
      </g>
     </g>
    </g>
    <g id="ytick_4">
     <g id="line2d_9">
      <g>
       <use xlink:href="#mdd4c599305" x="89.598242" y="212.296536" style="stroke: #000000; stroke-width: 2"/>
      </g>
     </g>
     <g id="text_10">
      <!-- $\mathdefault{10^{-10}}$ -->
      <g transform="translate(34.248242 217.995364)scale(0.15 -0.15)">
       <use xlink:href="#DejaVuSans-31" transform="translate(0 0.765625)"/>
       <use xlink:href="#DejaVuSans-30" transform="translate(63.623047 0.765625)"/>
       <use xlink:href="#DejaVuSans-2212" transform="translate(128.203125 39.046875)scale(0.7)"/>
       <use xlink:href="#DejaVuSans-31" transform="translate(186.855469 39.046875)scale(0.7)"/>
       <use xlink:href="#DejaVuSans-30" transform="translate(231.391602 39.046875)scale(0.7)"/>
      </g>
     </g>
    </g>
    <g id="ytick_5">
     <g id="line2d_10">
      <g>
       <use xlink:href="#mdd4c599305" x="89.598242" y="169.607158" style="stroke: #000000; stroke-width: 2"/>
      </g>
     </g>
     <g id="text_11">
      <!-- $\mathdefault{10^{-8}}$ -->
      <g transform="translate(40.848242 175.305986)scale(0.15 -0.15)">
       <defs>
        <path id="DejaVuSans-38" d="M 2034 2216 
Q 1584 2216 1326 1975 
Q 1069 1734 1069 1313 
Q 1069 891 1326 650 
Q 1584 409 2034 409 
Q 2484 409 2743 651 
Q 3003 894 3003 1313 
Q 3003 1734 2745 1975 
Q 2488 2216 2034 2216 
z
M 1403 2484 
Q 997 2584 770 2862 
Q 544 3141 544 3541 
Q 544 4100 942 4425 
Q 1341 4750 2034 4750 
Q 2731 4750 3128 4425 
Q 3525 4100 3525 3541 
Q 3525 3141 3298 2862 
Q 3072 2584 2669 2484 
Q 3125 2378 3379 2068 
Q 3634 1759 3634 1313 
Q 3634 634 3220 271 
Q 2806 -91 2034 -91 
Q 1263 -91 848 271 
Q 434 634 434 1313 
Q 434 1759 690 2068 
Q 947 2378 1403 2484 
z
M 1172 3481 
Q 1172 3119 1398 2916 
Q 1625 2713 2034 2713 
Q 2441 2713 2670 2916 
Q 2900 3119 2900 3481 
Q 2900 3844 2670 4047 
Q 2441 4250 2034 4250 
Q 1625 4250 1398 4047 
Q 1172 3844 1172 3481 
z
" transform="scale(0.015625)"/>
       </defs>
       <use xlink:href="#DejaVuSans-31" transform="translate(0 0.765625)"/>
       <use xlink:href="#DejaVuSans-30" transform="translate(63.623047 0.765625)"/>
       <use xlink:href="#DejaVuSans-2212" transform="translate(128.203125 39.046875)scale(0.7)"/>
       <use xlink:href="#DejaVuSans-38" transform="translate(186.855469 39.046875)scale(0.7)"/>
      </g>
     </g>
    </g>
    <g id="ytick_6">
     <g id="line2d_11">
      <g>
       <use xlink:href="#mdd4c599305" x="89.598242" y="126.91778" style="stroke: #000000; stroke-width: 2"/>
      </g>
     </g>
     <g id="text_12">
      <!-- $\mathdefault{10^{-6}}$ -->
      <g transform="translate(40.848242 132.616608)scale(0.15 -0.15)">
       <use xlink:href="#DejaVuSans-31" transform="translate(0 0.765625)"/>
       <use xlink:href="#DejaVuSans-30" transform="translate(63.623047 0.765625)"/>
       <use xlink:href="#DejaVuSans-2212" transform="translate(128.203125 39.046875)scale(0.7)"/>
       <use xlink:href="#DejaVuSans-36" transform="translate(186.855469 39.046875)scale(0.7)"/>
      </g>
     </g>
    </g>
    <g id="ytick_7">
     <g id="line2d_12">
      <g>
       <use xlink:href="#mdd4c599305" x="89.598242" y="84.228402" style="stroke: #000000; stroke-width: 2"/>
      </g>
     </g>
     <g id="text_13">
      <!-- $\mathdefault{10^{-4}}$ -->
      <g transform="translate(40.848242 89.92723)scale(0.15 -0.15)">
       <use xlink:href="#DejaVuSans-31" transform="translate(0 0.684375)"/>
       <use xlink:href="#DejaVuSans-30" transform="translate(63.623047 0.684375)"/>
       <use xlink:href="#DejaVuSans-2212" transform="translate(128.203125 38.965625)scale(0.7)"/>
       <use xlink:href="#DejaVuSans-34" transform="translate(186.855469 38.965625)scale(0.7)"/>
      </g>
     </g>
    </g>
    <g id="ytick_8">
     <g id="line2d_13">
      <g>
       <use xlink:href="#mdd4c599305" x="89.598242" y="41.539024" style="stroke: #000000; stroke-width: 2"/>
      </g>
     </g>
     <g id="text_14">
      <!-- $\mathdefault{10^{-2}}$ -->
      <g transform="translate(40.848242 47.237852)scale(0.15 -0.15)">
       <use xlink:href="#DejaVuSans-31" transform="translate(0 0.765625)"/>
       <use xlink:href="#DejaVuSans-30" transform="translate(63.623047 0.765625)"/>
       <use xlink:href="#DejaVuSans-2212" transform="translate(128.203125 39.046875)scale(0.7)"/>
       <use xlink:href="#DejaVuSans-32" transform="translate(186.855469 39.046875)scale(0.7)"/>
      </g>
     </g>
    </g>
    <g id="text_15">
     <!-- Energy -->
     <g transform="translate(27.12871 219.109375)rotate(-90)scale(0.15 -0.15)">
      <defs>
       <path id="DejaVuSans-45" d="M 628 4666 
L 3578 4666 
L 3578 4134 
L 1259 4134 
L 1259 2753 
L 3481 2753 
L 3481 2222 
L 1259 2222 
L 1259 531 
L 3634 531 
L 3634 0 
L 628 0 
L 628 4666 
z
" transform="scale(0.015625)"/>
       <path id="DejaVuSans-6e" d="M 3513 2113 
L 3513 0 
L 2938 0 
L 2938 2094 
Q 2938 2591 2744 2837 
Q 2550 3084 2163 3084 
Q 1697 3084 1428 2787 
Q 1159 2491 1159 1978 
L 1159 0 
L 581 0 
L 581 3500 
L 1159 3500 
L 1159 2956 
Q 1366 3272 1645 3428 
Q 1925 3584 2291 3584 
Q 2894 3584 3203 3211 
Q 3513 2838 3513 2113 
z
" transform="scale(0.015625)"/>
       <path id="DejaVuSans-72" d="M 2631 2963 
Q 2534 3019 2420 3045 
Q 2306 3072 2169 3072 
Q 1681 3072 1420 2755 
Q 1159 2438 1159 1844 
L 1159 0 
L 581 0 
L 581 3500 
L 1159 3500 
L 1159 2956 
Q 1341 3275 1631 3429 
Q 1922 3584 2338 3584 
Q 2397 3584 2469 3576 
Q 2541 3569 2628 3553 
L 2631 2963 
z
" transform="scale(0.015625)"/>
       <path id="DejaVuSans-67" d="M 2906 1791 
Q 2906 2416 2648 2759 
Q 2391 3103 1925 3103 
Q 1463 3103 1205 2759 
Q 947 2416 947 1791 
Q 947 1169 1205 825 
Q 1463 481 1925 481 
Q 2391 481 2648 825 
Q 2906 1169 2906 1791 
z
M 3481 434 
Q 3481 -459 3084 -895 
Q 2688 -1331 1869 -1331 
Q 1566 -1331 1297 -1286 
Q 1028 -1241 775 -1147 
L 775 -588 
Q 1028 -725 1275 -790 
Q 1522 -856 1778 -856 
Q 2344 -856 2625 -561 
Q 2906 -266 2906 331 
L 2906 616 
Q 2728 306 2450 153 
Q 2172 0 1784 0 
Q 1141 0 747 490 
Q 353 981 353 1791 
Q 353 2603 747 3093 
Q 1141 3584 1784 3584 
Q 2172 3584 2450 3431 
Q 2728 3278 2906 2969 
L 2906 3500 
L 3481 3500 
L 3481 434 
z
" transform="scale(0.015625)"/>
       <path id="DejaVuSans-79" d="M 2059 -325 
Q 1816 -950 1584 -1140 
Q 1353 -1331 966 -1331 
L 506 -1331 
L 506 -850 
L 844 -850 
Q 1081 -850 1212 -737 
Q 1344 -625 1503 -206 
L 1606 56 
L 191 3500 
L 800 3500 
L 1894 763 
L 2988 3500 
L 3597 3500 
L 2059 -325 
z
" transform="scale(0.015625)"/>
      </defs>
      <use xlink:href="#DejaVuSans-45"/>
      <use xlink:href="#DejaVuSans-6e" x="63.183594"/>
      <use xlink:href="#DejaVuSans-65" x="126.5625"/>
      <use xlink:href="#DejaVuSans-72" x="188.085938"/>
      <use xlink:href="#DejaVuSans-67" x="227.449219"/>
      <use xlink:href="#DejaVuSans-79" x="290.925781"/>
     </g>
    </g>
   </g>
   <g id="line2d_14">
    <path d="M 124.061958 32.264143 
L 137.847445 32.264143 
L 151.632931 32.264143 
L 165.418418 32.264143 
L 179.203904 32.264143 
L 192.989391 32.264143 
L 206.774877 32.264143 
L 220.560364 32.264143 
L 234.34585 32.264143 
L 248.131337 32.264143 
L 261.916823 32.264143 
L 275.70231 32.264143 
L 289.487796 32.264143 
L 303.273283 32.264144 
L 317.058769 32.264144 
L 330.844256 32.264144 
L 344.629742 32.264145 
L 358.415229 32.264145 
L 372.200715 32.264146 
L 385.986202 32.264146 
L 399.771688 32.264147 
L 413.557175 32.264147 
L 427.342661 32.264147 
L 441.128148 32.264148 
L 454.913634 32.264149 
L 468.699121 32.26415 
L 482.484607 32.26415 
L 496.270094 32.264151 
L 510.05558 32.264153 
L 523.841067 32.264155 
L 537.626553 32.264158 
L 551.41204 32.264158 
L 565.197526 32.264159 
L 578.983013 32.264159 
L 592.768499 32.264159 
L 606.553986 32.264159 
L 620.339473 32.264158 
L 634.124959 32.264157 
L 647.910446 32.264157 
L 661.695932 32.264156 
L 675.481419 32.264155 
L 689.266905 32.264154 
L 703.052392 32.264152 
L 716.837878 32.26415 
L 730.623365 32.264149 
L 744.408851 32.26415 
L 758.194338 32.26415 
L 771.979824 32.26415 
L 785.765311 32.264151 
L 799.550797 32.264152 
L 813.336284 32.264155 
" clip-path="url(#pdaf6ede4d9)" style="fill: none; stroke: #1f77b4; stroke-width: 1.5; stroke-linecap: square"/>
   </g>
   <g id="line2d_15">
    <path d="M 124.061958 101.922545 
L 137.847445 101.922559 
L 151.632931 101.922565 
L 165.418418 101.92268 
L 179.203904 101.922907 
L 192.989391 101.923197 
L 206.774877 101.923716 
L 220.560364 101.925093 
L 234.34585 101.928103 
L 248.131337 101.934099 
L 261.916823 101.944296 
L 275.70231 101.956298 
L 289.487796 101.963621 
L 303.273283 101.973004 
L 317.058769 101.990962 
L 330.844256 102.020027 
L 344.629742 102.064797 
L 358.415229 102.120052 
L 372.200715 102.16596 
L 385.986202 102.186335 
L 399.771688 102.205447 
L 413.557175 102.228646 
L 427.342661 102.255002 
L 441.128148 102.288278 
L 454.913634 102.319939 
L 468.699121 102.347066 
L 482.484607 102.366614 
L 496.270094 102.394554 
L 510.05558 102.438773 
L 523.841067 102.509737 
L 537.626553 102.605573 
L 551.41204 102.691568 
L 565.197526 102.745462 
L 578.983013 102.769779 
L 592.768499 102.786483 
L 606.553986 102.803997 
L 620.339473 102.828585 
L 634.124959 102.860159 
L 647.910446 102.886171 
L 661.695932 102.90246 
L 675.481419 102.912662 
L 689.266905 102.926505 
L 703.052392 102.949559 
L 716.837878 102.985815 
L 730.623365 103.03237 
L 744.408851 103.067064 
L 758.194338 103.082989 
L 771.979824 103.089405 
L 785.765311 103.09637 
L 799.550797 103.107499 
L 813.336284 103.126441 
" clip-path="url(#pdaf6ede4d9)" style="fill: none; stroke: #ff7f0e; stroke-width: 1.5; stroke-linecap: square"/>
   </g>
   <g id="line2d_16">
    <path d="M 137.780913 433 
L 137.847445 331.591597 
L 151.632931 313.309288 
L 165.418418 302.515069 
L 179.203904 293.339393 
L 192.989391 287.266705 
L 206.774877 282.944991 
L 220.560364 278.520766 
L 234.34585 274.78242 
L 248.131337 271.283743 
L 261.916823 267.601914 
L 275.70231 263.484444 
L 289.487796 259.463257 
L 303.273283 256.281312 
L 317.058769 253.213966 
L 330.844256 250.176429 
L 344.629742 247.409214 
L 358.415229 245.608281 
L 372.200715 242.774606 
L 385.986202 240.698883 
L 399.771688 239.914914 
L 413.557175 238.216306 
L 427.342661 238.218876 
L 441.128148 236.619646 
L 454.913634 236.064399 
L 468.699121 235.432287 
L 482.484607 234.170104 
L 496.270094 234.145949 
L 510.05558 232.336558 
L 523.841067 232.408429 
L 537.626553 231.150756 
L 551.41204 229.889567 
L 565.197526 228.924201 
L 578.983013 228.21209 
L 592.768499 228.340804 
L 606.553986 227.540947 
L 620.339473 227.376019 
L 634.124959 226.329834 
L 647.910446 225.535565 
L 661.695932 225.228411 
L 675.481419 224.694558 
L 689.266905 224.508491 
L 703.052392 223.975638 
L 716.837878 223.586414 
L 730.623365 223.036638 
L 744.408851 221.762661 
L 758.194338 221.215436 
L 771.979824 221.132771 
L 785.765311 220.831422 
L 799.550797 220.45853 
L 813.336284 219.925782 
" clip-path="url(#pdaf6ede4d9)" style="fill: none; stroke: #2ca02c; stroke-width: 1.5; stroke-linecap: square"/>
   </g>
   <g id="line2d_17">
    <path d="M 137.777962 433 
L 137.847445 327.072152 
L 151.632931 311.533749 
L 165.418418 302.346178 
L 179.203904 295.176182 
L 192.989391 290.224808 
L 206.774877 285.921041 
L 220.560364 281.989227 
L 234.34585 278.53992 
L 248.131337 274.777666 
L 261.916823 271.446476 
L 275.70231 267.522343 
L 289.487796 263.662481 
L 303.273283 260.620203 
L 317.058769 257.322086 
L 330.844256 254.271537 
L 344.629742 251.258577 
L 358.415229 249.059795 
L 372.200715 246.419256 
L 385.986202 244.029374 
L 399.771688 242.690131 
L 413.557175 240.767693 
L 427.342661 240.205708 
L 441.128148 238.017973 
L 454.913634 237.198051 
L 468.699121 236.123132 
L 482.484607 234.743215 
L 496.270094 234.396091 
L 510.05558 232.337604 
L 523.841067 232.062359 
L 537.626553 230.649955 
L 551.41204 229.10046 
L 565.197526 228.478907 
L 578.983013 227.169344 
L 592.768499 226.464009 
L 606.553986 225.178319 
L 620.339473 224.37035 
L 634.124959 223.104423 
L 647.910446 222.199472 
L 661.695932 222.17714 
L 675.481419 221.188005 
L 689.266905 220.429991 
L 703.052392 219.495153 
L 716.837878 218.792207 
L 730.623365 217.980537 
L 744.408851 217.386954 
L 758.194338 217.508027 
L 771.979824 216.691677 
L 785.765311 216.033263 
L 799.550797 215.550928 
L 813.336284 214.809485 
" clip-path="url(#pdaf6ede4d9)" style="fill: none; stroke: #d62728; stroke-width: 1.5; stroke-linecap: square"/>
   </g>
   <g id="line2d_18">
    <path d="M 137.776145 433 
L 137.847445 324.286575 
L 151.632931 308.610262 
L 165.418418 300.090382 
L 179.203904 293.12673 
L 192.989391 288.056958 
L 206.774877 284.380373 
L 220.560364 280.262897 
L 234.34585 276.842069 
L 248.131337 273.589335 
L 261.916823 269.858362 
L 275.70231 266.239224 
L 289.487796 262.688197 
L 303.273283 259.43567 
L 317.058769 256.467857 
L 330.844256 253.486911 
L 344.629742 250.552538 
L 358.415229 248.750506 
L 372.200715 245.921663 
L 385.986202 243.715051 
L 399.771688 242.923095 
L 413.557175 240.655068 
L 427.342661 240.644604 
L 441.128148 238.578082 
L 454.913634 237.541509 
L 468.699121 237.376575 
L 482.484607 235.571876 
L 496.270094 235.28381 
L 510.05558 233.41985 
L 523.841067 232.985162 
L 537.626553 231.41729 
L 551.41204 230.001785 
L 565.197526 229.158068 
L 578.983013 227.790864 
L 592.768499 227.082473 
L 606.553986 225.733097 
L 620.339473 224.854509 
L 634.124959 223.418201 
L 647.910446 222.581671 
L 661.695932 222.656217 
L 675.481419 221.481448 
L 689.266905 220.716606 
L 703.052392 219.952589 
L 716.837878 219.02504 
L 730.623365 218.263524 
L 744.408851 217.70157 
L 758.194338 217.793648 
L 771.979824 217.079669 
L 785.765311 216.40609 
L 799.550797 215.82584 
L 813.336284 215.111076 
" clip-path="url(#pdaf6ede4d9)" style="fill: none; stroke: #9467bd; stroke-width: 1.5; stroke-linecap: square"/>
   </g>
   <g id="line2d_19">
    <path d="M 137.795193 433 
L 137.847445 353.440909 
L 151.632931 350.717745 
L 165.418418 347.595573 
L 179.203904 344.459933 
L 192.989391 342.093285 
L 206.774877 340.233284 
L 220.560364 338.336011 
L 234.34585 336.712794 
L 248.131337 334.79161 
L 261.916823 332.650632 
L 275.70231 329.7887 
L 289.487796 327.321146 
L 303.273283 325.226456 
L 317.058769 322.728836 
L 330.844256 319.336973 
L 344.629742 314.66838 
L 358.415229 309.066189 
L 372.200715 304.596272 
L 385.986202 302.695394 
L 399.771688 301.197254 
L 413.557175 299.820153 
L 427.342661 298.991324 
L 441.128148 298.937779 
L 454.913634 296.968148 
L 468.699121 296.11165 
L 482.484607 295.765254 
L 496.270094 295.146405 
L 510.05558 293.421575 
L 523.841067 291.954014 
L 537.626553 290.013431 
L 551.41204 286.798936 
L 565.197526 284.881893 
L 578.983013 284.525904 
L 592.768499 283.750826 
L 606.553986 282.88082 
L 620.339473 282.553894 
L 634.124959 283.111374 
L 647.910446 281.972258 
L 661.695932 281.141315 
L 675.481419 281.777899 
L 689.266905 280.924531 
L 703.052392 279.291408 
L 716.837878 279.63023 
L 730.623365 279.409271 
L 744.408851 277.793019 
L 758.194338 276.782549 
L 771.979824 276.849476 
L 785.765311 276.341552 
L 799.550797 275.088731 
L 813.336284 276.118671 
" clip-path="url(#pdaf6ede4d9)" style="fill: none; stroke: #8c564b; stroke-width: 1.5; stroke-linecap: square"/>
   </g>
   <g id="line2d_20">
    <path d="M 137.773934 433 
L 137.847445 320.897272 
L 151.632931 306.208501 
L 165.418418 296.223776 
L 179.203904 288.312166 
L 192.989391 284.151561 
L 206.774877 279.765041 
L 220.560364 275.403709 
L 234.34585 272.228014 
L 248.131337 268.617217 
L 261.916823 264.700455 
L 275.70231 260.749488 
L 289.487796 257.2961 
L 303.273283 254.069294 
L 317.058769 250.945467 
L 330.844256 247.916408 
L 344.629742 245.72704 
L 358.415229 243.235826 
L 372.200715 240.113774 
L 385.986202 239.251194 
L 399.771688 237.18353 
L 413.557175 236.458204 
L 427.342661 235.652938 
L 441.128148 233.862148 
L 454.913634 234.314534 
L 468.699121 232.25893 
L 482.484607 232.20842 
L 496.270094 231.071746 
L 510.05558 230.239852 
L 523.841067 229.894324 
L 537.626553 227.720893 
L 551.41204 226.960243 
L 565.197526 225.66642 
L 578.983013 225.57952 
L 592.768499 224.622647 
L 606.553986 223.685071 
L 620.339473 222.831567 
L 634.124959 221.527742 
L 647.910446 221.289243 
L 661.695932 220.692256 
L 675.481419 220.258873 
L 689.266905 219.906228 
L 703.052392 218.982764 
L 716.837878 218.458096 
L 730.623365 217.196304 
L 744.408851 216.692683 
L 758.194338 216.951521 
L 771.979824 216.362858 
L 785.765311 215.98968 
L 799.550797 215.306796 
L 813.336284 214.635243 
" clip-path="url(#pdaf6ede4d9)" style="fill: none; stroke: #e377c2; stroke-width: 1.5; stroke-linecap: square"/>
   </g>
   <g id="line2d_21">
    <path d="M 137.775972 433 
L 137.847445 324.021672 
L 151.632931 308.382997 
L 165.418418 298.196838 
L 179.203904 290.786459 
L 192.989391 285.720525 
L 206.774877 281.022789 
L 220.560364 277.124957 
L 234.34585 273.573456 
L 248.131337 269.872915 
L 261.916823 265.939251 
L 275.70231 261.773804 
L 289.487796 258.41043 
L 303.273283 255.02299 
L 317.058769 251.755233 
L 330.844256 248.688197 
L 344.629742 246.181322 
L 358.415229 243.794908 
L 372.200715 240.599601 
L 385.986202 239.170686 
L 399.771688 237.234425 
L 413.557175 236.42316 
L 427.342661 235.017477 
L 441.128148 233.604822 
L 454.913634 233.192899 
L 468.699121 231.216799 
L 482.484607 231.385383 
L 496.270094 229.743602 
L 510.05558 229.024812 
L 523.841067 228.771277 
L 537.626553 226.568936 
L 551.41204 225.780514 
L 565.197526 224.653199 
L 578.983013 224.387609 
L 592.768499 223.524733 
L 606.553986 222.628777 
L 620.339473 222.009592 
L 634.124959 220.682618 
L 647.910446 220.424024 
L 661.695932 220.002652 
L 675.481419 219.638729 
L 689.266905 219.026836 
L 703.052392 218.362865 
L 716.837878 217.943225 
L 730.623365 216.570509 
L 744.408851 216.256157 
L 758.194338 216.421693 
L 771.979824 215.917515 
L 785.765311 215.670231 
L 799.550797 215.03183 
L 813.336284 214.331396 
" clip-path="url(#pdaf6ede4d9)" style="fill: none; stroke: #7f7f7f; stroke-width: 1.5; stroke-linecap: square"/>
   </g>
   <g id="line2d_22">
    <path d="M 124.061958 32.259091 
L 137.847445 32.259091 
L 151.632931 32.259091 
L 165.418418 32.259091 
L 179.203904 32.259091 
L 192.989391 32.259091 
L 206.774877 32.259092 
L 220.560364 32.259092 
L 234.34585 32.259094 
L 248.131337 32.259098 
L 261.916823 32.259103 
L 275.70231 32.25911 
L 289.487796 32.259114 
L 303.273283 32.259119 
L 317.058769 32.259129 
L 330.844256 32.259145 
L 344.629742 32.25917 
L 358.415229 32.2592 
L 372.200715 32.259225 
L 385.986202 32.259236 
L 399.771688 32.259246 
L 413.557175 32.259259 
L 427.342661 32.259273 
L 441.128148 32.259292 
L 454.913634 32.259309 
L 468.699121 32.259324 
L 482.484607 32.259335 
L 496.270094 32.25935 
L 510.05558 32.259374 
L 523.841067 32.259413 
L 537.626553 32.259464 
L 551.41204 32.259508 
L 565.197526 32.259536 
L 578.983013 32.259548 
L 592.768499 32.259557 
L 606.553986 32.259566 
L 620.339473 32.259576 
L 634.124959 32.259591 
L 647.910446 32.259603 
L 661.695932 32.259611 
L 675.481419 32.259615 
L 689.266905 32.25962 
L 703.052392 32.259629 
L 716.837878 32.259645 
L 730.623365 32.259667 
L 744.408851 32.259684 
L 758.194338 32.259692 
L 771.979824 32.259695 
L 785.765311 32.2597 
L 799.550797 32.259707 
L 813.336284 32.259718 
" clip-path="url(#pdaf6ede4d9)" style="fill: none; stroke: #000000; stroke-width: 1.5; stroke-linecap: square"/>
   </g>
   <g id="patch_3">
    <path d="M 89.598242 369.5 
L 89.598242 16.2 
" style="fill: none; stroke: #000000; stroke-width: 1.5; stroke-linejoin: miter; stroke-linecap: square"/>
   </g>
   <g id="patch_4">
    <path d="M 847.8 369.5 
L 847.8 16.2 
" style="fill: none; stroke: #000000; stroke-width: 1.5; stroke-linejoin: miter; stroke-linecap: square"/>
   </g>
   <g id="patch_5">
    <path d="M 89.598242 369.5 
L 847.8 369.5 
" style="fill: none; stroke: #000000; stroke-width: 1.5; stroke-linejoin: miter; stroke-linecap: square"/>
   </g>
   <g id="patch_6">
    <path d="M 89.598242 16.2 
L 847.8 16.2 
" style="fill: none; stroke: #000000; stroke-width: 1.5; stroke-linejoin: miter; stroke-linecap: square"/>
   </g>
   <g id="legend_1">
    <g id="patch_7">
     <path d="M 100.098242 227.60625 
L 262.292773 227.60625 
Q 265.292773 227.60625 265.292773 224.60625 
L 265.292773 26.7 
Q 265.292773 23.7 262.292773 23.7 
L 100.098242 23.7 
Q 97.098242 23.7 97.098242 26.7 
L 97.098242 224.60625 
Q 97.098242 227.60625 100.098242 227.60625 
z
" style="fill: #ffffff; opacity: 0.8; stroke: #cccccc; stroke-linejoin: miter"/>
    </g>
    <g id="line2d_23">
     <path d="M 103.098242 35.847656 
L 118.098242 35.847656 
L 133.098242 35.847656 
" style="fill: none; stroke: #1f77b4; stroke-width: 1.5; stroke-linecap: square"/>
    </g>
    <g id="text_16">
     <!-- ags/species_01 -->
     <g transform="translate(145.098242 41.097656)scale(0.15 -0.15)">
      <defs>
       <path id="DejaVuSans-61" d="M 2194 1759 
Q 1497 1759 1228 1600 
Q 959 1441 959 1056 
Q 959 750 1161 570 
Q 1363 391 1709 391 
Q 2188 391 2477 730 
Q 2766 1069 2766 1631 
L 2766 1759 
L 2194 1759 
z
M 3341 1997 
L 3341 0 
L 2766 0 
L 2766 531 
Q 2569 213 2275 61 
Q 1981 -91 1556 -91 
Q 1019 -91 701 211 
Q 384 513 384 1019 
Q 384 1609 779 1909 
Q 1175 2209 1959 2209 
L 2766 2209 
L 2766 2266 
Q 2766 2663 2505 2880 
Q 2244 3097 1772 3097 
Q 1472 3097 1187 3025 
Q 903 2953 641 2809 
L 641 3341 
Q 956 3463 1253 3523 
Q 1550 3584 1831 3584 
Q 2591 3584 2966 3190 
Q 3341 2797 3341 1997 
z
" transform="scale(0.015625)"/>
       <path id="DejaVuSans-73" d="M 2834 3397 
L 2834 2853 
Q 2591 2978 2328 3040 
Q 2066 3103 1784 3103 
Q 1356 3103 1142 2972 
Q 928 2841 928 2578 
Q 928 2378 1081 2264 
Q 1234 2150 1697 2047 
L 1894 2003 
Q 2506 1872 2764 1633 
Q 3022 1394 3022 966 
Q 3022 478 2636 193 
Q 2250 -91 1575 -91 
Q 1294 -91 989 -36 
Q 684 19 347 128 
L 347 722 
Q 666 556 975 473 
Q 1284 391 1588 391 
Q 1994 391 2212 530 
Q 2431 669 2431 922 
Q 2431 1156 2273 1281 
Q 2116 1406 1581 1522 
L 1381 1569 
Q 847 1681 609 1914 
Q 372 2147 372 2553 
Q 372 3047 722 3315 
Q 1072 3584 1716 3584 
Q 2034 3584 2315 3537 
Q 2597 3491 2834 3397 
z
" transform="scale(0.015625)"/>
       <path id="DejaVuSans-2f" d="M 1625 4666 
L 2156 4666 
L 531 -594 
L 0 -594 
L 1625 4666 
z
" transform="scale(0.015625)"/>
       <path id="DejaVuSans-70" d="M 1159 525 
L 1159 -1331 
L 581 -1331 
L 581 3500 
L 1159 3500 
L 1159 2969 
Q 1341 3281 1617 3432 
Q 1894 3584 2278 3584 
Q 2916 3584 3314 3078 
Q 3713 2572 3713 1747 
Q 3713 922 3314 415 
Q 2916 -91 2278 -91 
Q 1894 -91 1617 61 
Q 1341 213 1159 525 
z
M 3116 1747 
Q 3116 2381 2855 2742 
Q 2594 3103 2138 3103 
Q 1681 3103 1420 2742 
Q 1159 2381 1159 1747 
Q 1159 1113 1420 752 
Q 1681 391 2138 391 
Q 2594 391 2855 752 
Q 3116 1113 3116 1747 
z
" transform="scale(0.015625)"/>
       <path id="DejaVuSans-63" d="M 3122 3366 
L 3122 2828 
Q 2878 2963 2633 3030 
Q 2388 3097 2138 3097 
Q 1578 3097 1268 2742 
Q 959 2388 959 1747 
Q 959 1106 1268 751 
Q 1578 397 2138 397 
Q 2388 397 2633 464 
Q 2878 531 3122 666 
L 3122 134 
Q 2881 22 2623 -34 
Q 2366 -91 2075 -91 
Q 1284 -91 818 406 
Q 353 903 353 1747 
Q 353 2603 823 3093 
Q 1294 3584 2113 3584 
Q 2378 3584 2631 3529 
Q 2884 3475 3122 3366 
z
" transform="scale(0.015625)"/>
       <path id="DejaVuSans-5f" d="M 3263 -1063 
L 3263 -1509 
L -63 -1509 
L -63 -1063 
L 3263 -1063 
z
" transform="scale(0.015625)"/>
      </defs>
      <use xlink:href="#DejaVuSans-61"/>
      <use xlink:href="#DejaVuSans-67" x="61.279297"/>
      <use xlink:href="#DejaVuSans-73" x="124.755859"/>
      <use xlink:href="#DejaVuSans-2f" x="176.855469"/>
      <use xlink:href="#DejaVuSans-73" x="210.546875"/>
      <use xlink:href="#DejaVuSans-70" x="262.646484"/>
      <use xlink:href="#DejaVuSans-65" x="326.123047"/>
      <use xlink:href="#DejaVuSans-63" x="387.646484"/>
      <use xlink:href="#DejaVuSans-69" x="442.626953"/>
      <use xlink:href="#DejaVuSans-65" x="470.410156"/>
      <use xlink:href="#DejaVuSans-73" x="531.933594"/>
      <use xlink:href="#DejaVuSans-5f" x="584.033203"/>
      <use xlink:href="#DejaVuSans-30" x="634.033203"/>
      <use xlink:href="#DejaVuSans-31" x="697.65625"/>
     </g>
    </g>
    <g id="line2d_24">
     <path d="M 103.098242 58.282031 
L 118.098242 58.282031 
L 133.098242 58.282031 
" style="fill: none; stroke: #ff7f0e; stroke-width: 1.5; stroke-linecap: square"/>
    </g>
    <g id="text_17">
     <!-- ags/species_00 -->
     <g transform="translate(145.098242 63.532031)scale(0.15 -0.15)">
      <use xlink:href="#DejaVuSans-61"/>
      <use xlink:href="#DejaVuSans-67" x="61.279297"/>
      <use xlink:href="#DejaVuSans-73" x="124.755859"/>
      <use xlink:href="#DejaVuSans-2f" x="176.855469"/>
      <use xlink:href="#DejaVuSans-73" x="210.546875"/>
      <use xlink:href="#DejaVuSans-70" x="262.646484"/>
      <use xlink:href="#DejaVuSans-65" x="326.123047"/>
      <use xlink:href="#DejaVuSans-63" x="387.646484"/>
      <use xlink:href="#DejaVuSans-69" x="442.626953"/>
      <use xlink:href="#DejaVuSans-65" x="470.410156"/>
      <use xlink:href="#DejaVuSans-73" x="531.933594"/>
      <use xlink:href="#DejaVuSans-5f" x="584.033203"/>
      <use xlink:href="#DejaVuSans-30" x="634.033203"/>
      <use xlink:href="#DejaVuSans-30" x="697.65625"/>
     </g>
    </g>
    <g id="line2d_25">
     <path d="M 103.098242 80.716406 
L 118.098242 80.716406 
L 133.098242 80.716406 
" style="fill: none; stroke: #2ca02c; stroke-width: 1.5; stroke-linecap: square"/>
    </g>
    <g id="text_18">
     <!-- Ex -->
     <g transform="translate(145.098242 85.966406)scale(0.15 -0.15)">
      <defs>
       <path id="DejaVuSans-78" d="M 3513 3500 
L 2247 1797 
L 3578 0 
L 2900 0 
L 1881 1375 
L 863 0 
L 184 0 
L 1544 1831 
L 300 3500 
L 978 3500 
L 1906 2253 
L 2834 3500 
L 3513 3500 
z
" transform="scale(0.015625)"/>
      </defs>
      <use xlink:href="#DejaVuSans-45"/>
      <use xlink:href="#DejaVuSans-78" x="63.183594"/>
     </g>
    </g>
    <g id="line2d_26">
     <path d="M 103.098242 102.733594 
L 118.098242 102.733594 
L 133.098242 102.733594 
" style="fill: none; stroke: #d62728; stroke-width: 1.5; stroke-linecap: square"/>
    </g>
    <g id="text_19">
     <!-- Ey -->
     <g transform="translate(145.098242 107.983594)scale(0.15 -0.15)">
      <use xlink:href="#DejaVuSans-45"/>
      <use xlink:href="#DejaVuSans-79" x="63.183594"/>
     </g>
    </g>
    <g id="line2d_27">
     <path d="M 103.098242 124.750781 
L 118.098242 124.750781 
L 133.098242 124.750781 
" style="fill: none; stroke: #9467bd; stroke-width: 1.5; stroke-linecap: square"/>
    </g>
    <g id="text_20">
     <!-- Ez -->
     <g transform="translate(145.098242 130.000781)scale(0.15 -0.15)">
      <defs>
       <path id="DejaVuSans-7a" d="M 353 3500 
L 3084 3500 
L 3084 2975 
L 922 459 
L 3084 459 
L 3084 0 
L 275 0 
L 275 525 
L 2438 3041 
L 353 3041 
L 353 3500 
z
" transform="scale(0.015625)"/>
      </defs>
      <use xlink:href="#DejaVuSans-45"/>
      <use xlink:href="#DejaVuSans-7a" x="63.183594"/>
     </g>
    </g>
    <g id="line2d_28">
     <path d="M 103.098242 146.767969 
L 118.098242 146.767969 
L 133.098242 146.767969 
" style="fill: none; stroke: #8c564b; stroke-width: 1.5; stroke-linecap: square"/>
    </g>
    <g id="text_21">
     <!-- Bx -->
     <g transform="translate(145.098242 152.017969)scale(0.15 -0.15)">
      <defs>
       <path id="DejaVuSans-42" d="M 1259 2228 
L 1259 519 
L 2272 519 
Q 2781 519 3026 730 
Q 3272 941 3272 1375 
Q 3272 1813 3026 2020 
Q 2781 2228 2272 2228 
L 1259 2228 
z
M 1259 4147 
L 1259 2741 
L 2194 2741 
Q 2656 2741 2882 2914 
Q 3109 3088 3109 3444 
Q 3109 3797 2882 3972 
Q 2656 4147 2194 4147 
L 1259 4147 
z
M 628 4666 
L 2241 4666 
Q 2963 4666 3353 4366 
Q 3744 4066 3744 3513 
Q 3744 3084 3544 2831 
Q 3344 2578 2956 2516 
Q 3422 2416 3680 2098 
Q 3938 1781 3938 1306 
Q 3938 681 3513 340 
Q 3088 0 2303 0 
L 628 0 
L 628 4666 
z
" transform="scale(0.015625)"/>
      </defs>
      <use xlink:href="#DejaVuSans-42"/>
      <use xlink:href="#DejaVuSans-78" x="68.603516"/>
     </g>
    </g>
    <g id="line2d_29">
     <path d="M 103.098242 168.785156 
L 118.098242 168.785156 
L 133.098242 168.785156 
" style="fill: none; stroke: #e377c2; stroke-width: 1.5; stroke-linecap: square"/>
    </g>
    <g id="text_22">
     <!-- By -->
     <g transform="translate(145.098242 174.035156)scale(0.15 -0.15)">
      <use xlink:href="#DejaVuSans-42"/>
      <use xlink:href="#DejaVuSans-79" x="68.603516"/>
     </g>
    </g>
    <g id="line2d_30">
     <path d="M 103.098242 190.802344 
L 118.098242 190.802344 
L 133.098242 190.802344 
" style="fill: none; stroke: #7f7f7f; stroke-width: 1.5; stroke-linecap: square"/>
    </g>
    <g id="text_23">
     <!-- Bz -->
     <g transform="translate(145.098242 196.052344)scale(0.15 -0.15)">
      <use xlink:href="#DejaVuSans-42"/>
      <use xlink:href="#DejaVuSans-7a" x="68.603516"/>
     </g>
    </g>
    <g id="line2d_31">
     <path d="M 103.098242 212.819531 
L 118.098242 212.819531 
L 133.098242 212.819531 
" style="fill: none; stroke: #000000; stroke-width: 1.5; stroke-linecap: square"/>
    </g>
    <g id="text_24">
     <!-- total_energy -->
     <g transform="translate(145.098242 218.069531)scale(0.15 -0.15)">
      <defs>
       <path id="DejaVuSans-74" d="M 1172 4494 
L 1172 3500 
L 2356 3500 
L 2356 3053 
L 1172 3053 
L 1172 1153 
Q 1172 725 1289 603 
Q 1406 481 1766 481 
L 2356 481 
L 2356 0 
L 1766 0 
Q 1100 0 847 248 
Q 594 497 594 1153 
L 594 3053 
L 172 3053 
L 172 3500 
L 594 3500 
L 594 4494 
L 1172 4494 
z
" transform="scale(0.015625)"/>
       <path id="DejaVuSans-6f" d="M 1959 3097 
Q 1497 3097 1228 2736 
Q 959 2375 959 1747 
Q 959 1119 1226 758 
Q 1494 397 1959 397 
Q 2419 397 2687 759 
Q 2956 1122 2956 1747 
Q 2956 2369 2687 2733 
Q 2419 3097 1959 3097 
z
M 1959 3584 
Q 2709 3584 3137 3096 
Q 3566 2609 3566 1747 
Q 3566 888 3137 398 
Q 2709 -91 1959 -91 
Q 1206 -91 779 398 
Q 353 888 353 1747 
Q 353 2609 779 3096 
Q 1206 3584 1959 3584 
z
" transform="scale(0.015625)"/>
       <path id="DejaVuSans-6c" d="M 603 4863 
L 1178 4863 
L 1178 0 
L 603 0 
L 603 4863 
z
" transform="scale(0.015625)"/>
      </defs>
      <use xlink:href="#DejaVuSans-74"/>
      <use xlink:href="#DejaVuSans-6f" x="39.208984"/>
      <use xlink:href="#DejaVuSans-74" x="100.390625"/>
      <use xlink:href="#DejaVuSans-61" x="139.599609"/>
      <use xlink:href="#DejaVuSans-6c" x="200.878906"/>
      <use xlink:href="#DejaVuSans-5f" x="228.662109"/>
      <use xlink:href="#DejaVuSans-65" x="278.662109"/>
      <use xlink:href="#DejaVuSans-6e" x="340.185547"/>
      <use xlink:href="#DejaVuSans-65" x="403.564453"/>
      <use xlink:href="#DejaVuSans-72" x="465.087891"/>
      <use xlink:href="#DejaVuSans-67" x="504.451172"/>
      <use xlink:href="#DejaVuSans-79" x="567.927734"/>
     </g>
    </g>
   </g>
  </g>
 </g>
 <defs>
  <clipPath id="pdaf6ede4d9">
   <rect x="89.598242" y="16.2" width="758.201758" height="353.3"/>
  </clipPath>
 </defs>
</svg>
